<?xml version="1.0" standalone="no"?>
<!DOCTYPE svg PUBLIC "-//W3C//DTD SVG 20010904//EN"
 "http://www.w3.org/TR/2001/REC-SVG-20010904/DTD/svg10.dtd">
<svg version="1.0" xmlns="http://www.w3.org/2000/svg"
 width="97.000000pt" height="96.000000pt" viewBox="0 0 97.000000 96.000000"
 preserveAspectRatio="xMidYMid meet">

<g transform="translate(0.000000,96.000000) scale(0.100000,-0.100000)"
fill="#000000" stroke="none">
<path d="M50 911 c-14 -27 -14 -835 0 -862 10 -17 22 -19 116 -19 l106 0 11
30 11 30 328 0 328 0 0 30 c0 20 -5 30 -15 30 -13 0 -15 43 -15 330 0 287 2
330 15 330 10 0 15 10 15 30 l0 30 -298 0 -298 0 -11 30 -11 30 -136 0 c-124
0 -136 -2 -146 -19z m230 -143 c0 -83 -4 -110 -21 -145 -23 -47 -65 -84 -116
-101 l-33 -11 0 180 0 179 85 0 85 0 0 -102z m570 -138 l0 -180 -27 0 c-16 0
-43 -9 -61 -20 -41 -25 -73 -25 -114 0 -42 25 -84 25 -126 0 -41 -25 -73 -25
-114 0 -41 25 -84 25 -123 2 l-30 -18 -33 33 c-18 18 -29 33 -24 33 5 0 29 18
54 40 57 50 88 120 95 216 l6 74 248 0 249 0 0 -180z m-686 -211 c48 -38 56
-67 56 -204 l0 -125 -55 0 -55 0 0 175 c0 191 2 195 54 154z m239 -54 c54 -27
93 -25 139 6 34 24 43 24 101 -6 54 -27 93 -25 139 6 14 11 36 19 47 19 18 0
21 -6 21 -45 0 -42 -2 -45 -27 -45 -16 0 -43 -9 -61 -20 -41 -25 -73 -25 -114
0 -42 25 -84 25 -126 0 -42 -26 -72 -25 -117 1 -26 16 -46 20 -75 16 -40 -5
-50 3 -50 43 0 19 36 49 60 49 8 1 37 -10 63 -24z m0 -150 c54 -27 93 -25 139
6 34 24 43 24 101 -6 54 -27 93 -25 139 6 14 11 36 19 47 19 18 0 21 -6 21
-45 l0 -45 -280 0 -280 0 0 31 c0 32 22 58 50 59 8 0 37 -11 63 -25z"/>
<path d="M629 705 c-67 -36 -51 -141 23 -159 100 -25 158 112 67 159 -35 18
-56 18 -90 0z m66 -75 c0 -29 -32 -41 -41 -16 -9 24 4 48 23 44 12 -2 18 -12
18 -28z"/>
</g>
</svg>
