<?xml version="1.0" standalone="no"?>
<!DOCTYPE svg PUBLIC "-//W3C//DTD SVG 20010904//EN"
 "http://www.w3.org/TR/2001/REC-SVG-20010904/DTD/svg10.dtd">
<svg version="1.0" xmlns="http://www.w3.org/2000/svg"
 width="96.000000pt" height="96.000000pt" viewBox="0 0 96.000000 96.000000"
 preserveAspectRatio="xMidYMid meet">

<g transform="translate(0.000000,96.000000) scale(0.100000,-0.100000)"
fill="#000000" stroke="none">
<path d="M420 916 c-76 -20 -138 -57 -191 -113 -51 -54 -103 -150 -97 -180 2
-12 45 -27 168 -60 91 -25 166 -46 168 -48 3 -3 -104 -412 -115 -443 -4 -10 3
-13 28 -10 l34 3 57 213 c31 118 58 216 60 218 2 2 80 -17 173 -42 186 -50
180 -51 191 25 41 268 -220 507 -476 437z m129 -55 c11 -7 8 -31 -20 -135 -18
-70 -36 -132 -40 -138 -7 -11 -116 9 -125 24 -11 17 65 158 112 208 50 53 52
54 73 41z m-139 -15 c0 -3 -13 -24 -29 -48 -16 -24 -40 -70 -54 -103 -14 -32
-30 -61 -35 -63 -6 -2 -28 2 -50 8 -48 12 -47 24 7 96 40 53 161 135 161 110z
m257 -33 c15 -22 18 -49 18 -149 0 -67 -3 -125 -7 -129 -8 -8 -117 15 -124 26
-3 5 11 67 31 139 19 72 35 133 35 135 0 16 32 1 47 -22z m140 -140 c25 -53
41 -148 30 -177 -5 -13 -12 -13 -49 -3 -37 11 -43 16 -42 40 0 15 1 73 2 130
2 95 4 101 18 82 9 -11 27 -44 41 -72z"/>
<path d="M135 291 c-36 -16 -67 -58 -72 -99 -17 -128 166 -183 222 -66 24 52
19 90 -18 130 -34 37 -92 53 -132 35z m85 -71 c11 -11 20 -28 20 -38 0 -29
-29 -62 -56 -62 -29 0 -64 32 -64 60 0 26 34 60 60 60 11 0 29 -9 40 -20z"/>
</g>
</svg>
