<?xml version="1.0" standalone="no"?>
<!DOCTYPE svg PUBLIC "-//W3C//DTD SVG 20010904//EN"
 "http://www.w3.org/TR/2001/REC-SVG-20010904/DTD/svg10.dtd">
<svg version="1.0" xmlns="http://www.w3.org/2000/svg"
 width="96.000000pt" height="96.000000pt" viewBox="0 0 96.000000 96.000000"
 preserveAspectRatio="xMidYMid meet">

<g transform="translate(0.000000,96.000000) scale(0.100000,-0.100000)"
fill="#000000" stroke="none">
<path d="M375 861 c-30 -13 -63 -52 -70 -83 -7 -26 -5 -28 24 -28 17 0 31 5
31 10 0 17 39 50 60 50 33 0 60 -35 60 -80 l0 -40 -180 0 -180 0 0 -30 0 -30
180 0 180 0 0 -75 c0 -54 -4 -75 -13 -75 -7 0 -29 -9 -50 -20 -47 -25 -74 -25
-112 0 -39 26 -74 25 -135 -2 -44 -21 -50 -26 -50 -55 0 -30 2 -31 28 -24 15
5 42 17 60 27 32 19 32 19 74 -5 53 -30 103 -30 156 0 l42 24 42 -24 c53 -30
103 -30 156 0 42 24 42 24 74 5 18 -10 45 -22 61 -27 25 -7 27 -6 27 24 -1 28
-7 35 -48 55 -26 12 -53 22 -59 22 -9 0 -13 22 -13 75 l0 75 60 0 60 0 0 30 0
30 -60 0 -60 0 0 50 c0 43 -5 56 -34 88 -31 33 -40 37 -84 37 -35 0 -56 -6
-71 -19 -20 -18 -22 -18 -40 -2 -23 20 -87 30 -116 17z m265 -71 c13 -13 20
-33 20 -60 l0 -40 -60 0 -60 0 0 40 c0 45 27 80 60 80 11 0 29 -9 40 -20z m18
-247 c-3 -85 -4 -88 -30 -97 -18 -6 -38 -6 -55 0 -27 9 -28 12 -31 97 l-3 87
61 0 61 0 -3 -87z"/>
<path d="M168 307 c-42 -19 -48 -26 -48 -54 0 -30 2 -31 28 -24 15 5 42 17 60
27 32 19 32 19 74 -5 23 -13 58 -24 78 -24 20 0 55 11 78 24 l42 24 42 -24
c53 -30 103 -30 156 0 42 24 42 24 74 5 18 -10 45 -22 61 -27 25 -7 27 -6 27
24 0 29 -6 34 -50 55 -61 27 -85 28 -133 2 -46 -25 -68 -25 -114 0 -21 11 -49
20 -63 20 -14 0 -42 -9 -63 -20 -47 -25 -74 -25 -112 0 -39 26 -78 25 -137 -3z"/>
<path d="M168 157 c-42 -19 -48 -26 -48 -54 0 -30 2 -31 28 -24 15 5 42 17 60
27 32 19 32 19 74 -5 23 -13 58 -24 78 -24 20 0 55 11 78 24 l42 24 42 -24
c53 -30 103 -30 156 0 42 24 42 24 74 5 18 -10 45 -22 61 -27 25 -7 27 -6 27
24 0 29 -6 34 -50 55 -61 27 -85 28 -133 2 -46 -25 -68 -25 -114 0 -21 11 -49
20 -63 20 -14 0 -42 -9 -63 -20 -47 -25 -74 -25 -112 0 -39 26 -78 25 -137 -3z"/>
</g>
</svg>
