<?xml version="1.0" standalone="no"?>
<!DOCTYPE svg PUBLIC "-//W3C//DTD SVG 20010904//EN"
 "http://www.w3.org/TR/2001/REC-SVG-20010904/DTD/svg10.dtd">
<svg version="1.0" xmlns="http://www.w3.org/2000/svg"
 width="96.000000pt" height="96.000000pt" viewBox="0 0 96.000000 96.000000"
 preserveAspectRatio="xMidYMid meet">

<g transform="translate(0.000000,96.000000) scale(0.100000,-0.100000)"
fill="#000000" stroke="none">
<path d="M408 939 c-67 -35 -78 -72 -78 -264 l0 -165 -30 0 -30 0 0 71 c0 67
-2 73 -34 105 -48 48 -95 47 -143 -1 l-35 -35 4 -122 c3 -110 6 -127 26 -156
36 -50 89 -72 172 -72 l70 0 0 -90 0 -90 -135 0 -135 0 0 -30 0 -30 420 0 420
0 0 30 0 30 -135 0 -135 0 0 165 0 165 76 0 c60 0 85 5 116 22 61 35 78 77 78
199 l0 101 -34 34 c-47 47 -95 47 -142 0 -31 -31 -34 -40 -34 -90 0 -56 0 -56
-30 -56 l-30 0 0 93 c0 110 -17 150 -76 184 -48 28 -97 28 -146 2z m129 -63
c27 -24 28 -28 33 -148 l5 -123 85 0 85 0 3 75 c3 75 15 100 48 100 33 0 44
-31 44 -121 0 -87 -1 -92 -29 -120 -28 -28 -33 -29 -119 -29 -50 0 -97 -3
-106 -6 -14 -5 -16 -32 -16 -195 l0 -189 -90 0 -89 0 -3 118 -3 117 -103 5
c-102 5 -104 6 -133 38 -28 31 -29 36 -29 131 0 105 10 131 50 131 29 0 35
-17 40 -115 l5 -90 85 0 85 0 5 198 5 199 28 24 c36 31 78 31 114 0z"/>
</g>
</svg>
