<svg viewBox="0 0 32 32" xmlns="http://www.w3.org/2000/svg" aria-hidden="true" role="presentation" focusable="false" style="display: block; height: 24px; width: 24px; fill: currentcolor;"><path d="M25 2a1 1 0 0 1 .936.649l.034.108 1 4a1 1 0 0 1-.857 1.237L26 8h-9v2h-2V7.999H4.999v20l3 .001a5 5 0 0 1-.716-4.66l.102-.263 2.515-6.04-1.794-3.59a1 1 0 0 1 .779-1.44L9 12h14a1 1 0 0 1 .94 1.341l-.046.106L22.618 16H24a5 5 0 0 1 4.995 4.783L29 21v4h-2v-4a3 3 0 0 0-2.824-2.995L24 18h-1.5l2.115 5.077A4.998 4.998 0 0 1 24 28L27 28v2H4a1 1 0 0 1-.993-.883L3 29V3a1 1 0 0 1 .883-.993L4 2zM12.647 22a6.638 6.638 0 0 0-2.91.628l-.506 1.218a3 3 0 0 0-.194.682l-.028.235L9 25a3 3 0 0 0 2.824 2.995l.156.004 8.027.001.23-.01a3 3 0 0 0 2.603-2.023c-1.692-.121-2.93-.67-4.836-1.889l-.375-.243C15.493 22.44 14.452 22 12.647 22zm7.686-4h-8.667l-.913 2.188A9.062 9.062 0 0 1 12.647 20c2.188 0 3.515.52 5.75 1.95l.38.246c1.74 1.136 2.741 1.627 4.034 1.76l-.042-.11zm1.048-4H10.618l1 2h8.763zm2.837-10.001H4.999v2h19.719z"></path></svg>
