<svg viewBox="0 0 32 32" xmlns="http://www.w3.org/2000/svg" aria-hidden="true" role="presentation" focusable="false" style="display: block; height: 24px; width: 24px; fill: currentcolor;"><path d="m31 6v2h-1v23h-6v-18h-16v18h-6v-23h-1v-2zm-15.368 8.991.959.702c3.317 2.43 5.141 5.07 5.382 7.934l.02.287.005.207.002.138c0 3.183-2.698 5.741-6 5.741-3.168 0-5.789-2.358-5.988-5.387l-.01-.218-.002-.147c.004-1.629.557-3.29 1.64-4.985l.224-.34.677-.98 1.238.783zm12.368-6.991h-24v21h2v-16a2 2 0 0 1 1.697-1.977l.154-.018.149-.005h16a2 2 0 0 1 1.995 1.85l.005.15v16h2zm-12 17.355-.092.093c-.62.655-.908 1.233-.908 1.719 0 .428.413.833 1 .833s1-.405 1-.833c0-.445-.242-.968-.76-1.556l-.148-.163zm.351-7.315-1.766 3.562-1.466-.927-.152.265c-.534.96-.844 1.878-.937 2.749l-.023.289-.007.26.001.118c.025.92.408 1.761 1.024 2.403.14-1.137.86-2.237 2.097-3.324l.238-.203.64-.534.64.534c1.384 1.153 2.188 2.32 2.335 3.528a3.593 3.593 0 0 0 1.018-2.27l.007-.218-.006-.28c-.088-1.865-1.113-3.702-3.129-5.51l-.268-.236zm14.649-16.04v2h-30v-2z"></path></svg>
