<svg viewBox="0 0 32 32" xmlns="http://www.w3.org/2000/svg" aria-hidden="true" role="presentation" focusable="false" style="display: block; height: 24px; width: 24px; fill: currentcolor;"><path d="M15.59 1.912l1.025.8C22.168 7.045 25 11.464 25 15.985a8.988 8.988 0 0 1-.495 3.016L31 19v2h-2v9a1 1 0 0 1-.883.993L28 31H4a1 1 0 0 1-.993-.883L3 30v-9H1v-2h6.423C7.143 18.095 7 17.089 7 15.986c0-2.25 1.105-4.82 3.273-7.745l.265-.352.552-.724 1.782 1.112 2.719-6.364zM27 21H5v8h22v-8zM16.399 5.108l-2.605 6.101-2.206-1.377-.17.24c-1.55 2.225-2.344 4.13-2.413 5.692L9 15.985c0 1.092.165 2.037.48 2.842l.072.172 3.001.002a6.104 6.104 0 0 1-.053-.834c0-1.515.859-3.187 2.519-5.07l.242-.27.739-.811.739.81c1.819 1.995 2.761 3.754 2.761 5.34 0 .297-.017.575-.053.835l3.068-.002-.144-.07c.412-.852.629-1.836.629-2.944 0-3.426-2.031-6.935-6.174-10.515l-.427-.362zm-.4 9.93l-.075.095c-.9 1.151-1.364 2.121-1.419 2.884l-.005.15c0 .357.033.634.087.834h2.826c.054-.2.087-.477.087-.834 0-.784-.464-1.806-1.424-3.034l-.077-.095z"></path></svg>
