<svg viewBox="0 0 32 32" xmlns="http://www.w3.org/2000/svg" aria-hidden="true" role="presentation" focusable="false" style="display: block; height: 24px; width: 24px; fill: currentcolor;"><path d="M29 15v16h-2v-6h-6v6h-2v-6l.005-.15a2 2 0 0 1 1.838-1.844L21 23h6v-8zM5 15v8h6a2 2 0 0 1 1.995 1.85L13 25v6h-2v-6H5v6H3V15zM16 1a15 15 0 0 1 13.556 8.571 1 1 0 0 1-.79 1.423l-.113.006H17v8h8v2h-8v10h-2V21H7v-2h8v-8H3.347a1 1 0 0 1-.946-1.323l.043-.106A15 15 0 0 1 16 1zm0 2C11.71 3 7.799 5.097 5.402 8.468l-.197.284L5.042 9h21.915l-.162-.248a12.995 12.995 0 0 0-10.1-5.734l-.365-.014z"></path></svg>
