<svg viewBox="0 0 32 32" xmlns="http://www.w3.org/2000/svg" aria-hidden="true" role="presentation" focusable="false" style="display: block; height: 24px; width: 24px; fill: currentcolor;"><path d="M24 26c.988 0 1.945.351 2.671 1.009.306.276.71.445 1.142.483L28 27.5v2l-.228-.006a3.96 3.96 0 0 1-2.443-1.003A1.978 1.978 0 0 0 24 28c-.502 0-.978.175-1.328.491a3.977 3.977 0 0 1-2.67 1.009 3.977 3.977 0 0 1-2.672-1.009A1.978 1.978 0 0 0 16 28c-.503 0-.98.175-1.329.491a3.978 3.978 0 0 1-2.67 1.009 3.978 3.978 0 0 1-2.672-1.008A1.978 1.978 0 0 0 8 28c-.503 0-.98.175-1.33.491a3.96 3.96 0 0 1-2.442 1.003L4 29.5v-2l.187-.008a1.953 1.953 0 0 0 1.142-.483A3.975 3.975 0 0 1 8 26c.988 0 1.945.352 2.671 1.009.35.316.826.49 1.33.491.502 0 .979-.175 1.328-.492A3.974 3.974 0 0 1 16 26c.988 0 1.945.351 2.671 1.009.35.316.826.49 1.33.491.502 0 .979-.175 1.328-.491A3.975 3.975 0 0 1 23.999 26zm0-5c.988 0 1.945.351 2.671 1.009.306.276.71.445 1.142.483L28 22.5v2l-.228-.006a3.96 3.96 0 0 1-2.443-1.003A1.978 1.978 0 0 0 24 23c-.502 0-.978.175-1.328.491a3.977 3.977 0 0 1-2.67 1.009 3.977 3.977 0 0 1-2.672-1.009A1.978 1.978 0 0 0 16 23c-.503 0-.98.175-1.329.491a3.978 3.978 0 0 1-2.67 1.009 3.978 3.978 0 0 1-2.672-1.008A1.978 1.978 0 0 0 8 23c-.503 0-.98.175-1.33.491a3.96 3.96 0 0 1-2.442 1.003L4 24.5v-2l.187-.008a1.953 1.953 0 0 0 1.142-.483A3.975 3.975 0 0 1 8 21c.988 0 1.945.352 2.671 1.009.35.316.826.49 1.33.491.502 0 .979-.175 1.328-.492A3.974 3.974 0 0 1 16 21c.988 0 1.945.351 2.671 1.009.35.316.826.49 1.33.491.502 0 .979-.175 1.328-.491A3.975 3.975 0 0 1 23.999 21zM20 3a4 4 0 0 1 3.995 3.8L24 7v2h4v2h-4v5c.912 0 1.798.3 2.5.862l.171.147c.306.276.71.445 1.142.483L28 17.5v2l-.228-.006a3.96 3.96 0 0 1-2.443-1.003A1.978 1.978 0 0 0 24 18c-.502 0-.978.175-1.328.491a3.977 3.977 0 0 1-2.67 1.009 3.977 3.977 0 0 1-2.672-1.009A1.978 1.978 0 0 0 16 18c-.503 0-.98.175-1.329.491a3.978 3.978 0 0 1-2.67 1.009 3.978 3.978 0 0 1-2.672-1.008A1.978 1.978 0 0 0 8 18c-.503 0-.98.175-1.33.491a3.96 3.96 0 0 1-2.442 1.003L4 19.5v-2l.187-.008a1.953 1.953 0 0 0 1.142-.483A3.975 3.975 0 0 1 8 16c.988 0 1.945.352 2.671 1.009.35.316.826.49 1.33.491.502 0 .979-.175 1.328-.492a3.956 3.956 0 0 1 2.444-1.002L16 16v-5H4V9h12V7a2 2 0 0 0-3.995-.15L12 7h-2a4 4 0 0 1 7-2.645A3.985 3.985 0 0 1 20 3zm-2 13.523c.16.091.313.194.459.307l.212.179c.35.316.826.49 1.33.491.439 0 .86-.134 1.191-.38l.137-.111c.206-.187.431-.35.67-.486V11h-4zM20 5a2 2 0 0 0-1.995 1.85L18 7v2h4V7a2 2 0 0 0-2-2z"></path></svg>
