<svg viewBox="0 0 32 32" xmlns="http://www.w3.org/2000/svg" aria-hidden="true" role="presentation" focusable="false" style="display: block; height: 24px; width: 24px; fill: currentcolor;"><path d="M12.994 2h2c-.002 2.062-.471 3.344-1.765 5.424l-.753 1.183c-.867 1.391-1.278 2.301-1.418 3.393H9.043c.1-1.069.378-1.966.903-3H6c0 5.523 4.477 10 10 10 5.43 0 9.848-4.327 9.996-9.72L26 9l-3.765.001c-.704 1.177-1.05 2.014-1.177 2.999h-2.015c.15-1.613.708-2.836 1.91-4.728l.563-.88c1.116-1.791 1.477-2.784 1.478-4.393h2c-.002 1.919-.408 3.162-1.506 5L28 7v2c0 .682-.057 1.35-.166 2H30v2h-2.683a12.039 12.039 0 0 1-5.896 6.709l4.49 9.877-1.821.828-2.006-4.415H17V30h-2v-4H9.916L7.91 30.413l-1.82-.828 4.49-9.877A12.039 12.039 0 0 1 4.682 13H2v-2h2.166a12.058 12.058 0 0 1-.162-1.695L4 9V7h7.127l.389-.609c1.116-1.79 1.477-2.783 1.478-4.392zm-.56 18.461L10.824 24H15v-3.04a11.95 11.95 0 0 1-2.566-.498zM17 20.96v3.04h4.175l-1.609-3.538c-.684.213-1.395.366-2.126.453zm.994-18.96h2c-.002 2.063-.471 3.345-1.765 5.425l-.753 1.183c-.867 1.391-1.278 2.301-1.418 3.393h-2.015c.15-1.613.708-2.836 1.91-4.728l.563-.88c1.116-1.791 1.477-2.784 1.478-4.393z"></path></svg>
