<svg viewBox="0 0 32 32" xmlns="http://www.w3.org/2000/svg" aria-hidden="true" role="presentation" focusable="false" style="display: block; height: 24px; width: 24px; fill: currentcolor;"><path d="M16 0a5 5 0 0 1 4.995 4.783L21 5l.001 12.756.26.217a7.984 7.984 0 0 1 2.717 5.43l.017.304L24 24a8 8 0 1 1-13.251-6.036l.25-.209L11 5A5 5 0 0 1 15.563.019l.22-.014zm0 2a3 3 0 0 0-2.995 2.824L13 5v13.777l-.428.298a6 6 0 1 0 7.062.15l-.205-.15-.428-.298L19 11h-4V9h4V7h-4V5h4a3 3 0 0 0-3-3zm1 11v7.126A4.002 4.002 0 0 1 16 28a4 4 0 0 1-1-7.874V13zm-1 9a2 2 0 1 0 0 4 2 2 0 0 0 0-4z"></path></svg>
