<svg viewBox="0 0 32 32" xmlns="http://www.w3.org/2000/svg" aria-hidden="true" role="presentation" focusable="false" style="display: block; height: 24px; width: 24px; fill: currentcolor;"><path d="M9.5 2a4.5 4.5 0 0 1 3.527 7.295c.609.215 1.173.55 1.66.988l.191.182L17.414 13H31v2h-2v14a2 2 0 0 1-1.85 1.995L27 31H5a2 2 0 0 1-1.995-1.85L3 29V15H1v-2h2.1a5.009 5.009 0 0 1 2.955-3.608A4.5 4.5 0 0 1 9.5 2zm7.085 13H5v14h22V15h-7.586l3.293 3.294-1.414 1.414zM9.5 4a2.5 2.5 0 0 0-1 4.792V11H8a3.001 3.001 0 0 0-2.83 2h9.415l-1.121-1.121a3 3 0 0 0-1.923-.872L11.343 11H10.5V8.792A2.5 2.5 0 0 0 9.5 4zm15.486-3a6.957 6.957 0 0 1-1.803 4.07l-.445.463A8.971 8.971 0 0 0 20.354 11H18.35a10.975 10.975 0 0 1 3.202-7.118A4.961 4.961 0 0 0 22.974 1zm2.007 0h2.004a10.96 10.96 0 0 1-3.202 7.124A4.974 4.974 0 0 0 24.373 11h-2.012a6.97 6.97 0 0 1 1.804-4.064l.444-.462A8.958 8.958 0 0 0 26.993.999z"></path></svg>
