<?xml version="1.0" standalone="no"?>
<!DOCTYPE svg PUBLIC "-//W3C//DTD SVG 20010904//EN"
 "http://www.w3.org/TR/2001/REC-SVG-20010904/DTD/svg10.dtd">
<svg version="1.0" xmlns="http://www.w3.org/2000/svg"
 width="96.000000pt" height="96.000000pt" viewBox="0 0 96.000000 96.000000"
 preserveAspectRatio="xMidYMid meet">

<g transform="translate(0.000000,96.000000) scale(0.100000,-0.100000)"
fill="#000000" stroke="none">
<path d="M418 930 c-24 -25 -29 -37 -26 -65 4 -31 1 -35 -27 -41 -50 -11 -144
-63 -190 -105 -53 -49 -97 -116 -121 -186 -13 -37 -24 -53 -36 -53 -13 0 -18
-8 -18 -30 l0 -30 480 0 480 0 0 30 c0 22 -5 30 -18 30 -13 0 -22 12 -31 43
-38 129 -151 244 -285 291 -59 21 -61 22 -58 54 3 25 -3 39 -27 62 -40 40 -82
40 -123 0z m87 -50 c8 -25 -1 -40 -25 -40 -23 0 -38 39 -19 51 22 14 37 10 44
-11z m141 -140 c98 -48 178 -139 208 -237 l7 -23 -381 0 -381 0 6 23 c27 88
114 191 196 233 70 35 114 44 203 40 62 -4 91 -10 142 -36z"/>
<path d="M664 337 l-70 -34 -17 28 -16 29 -201 0 c-250 0 -240 6 -240 -138 0
-85 3 -101 19 -116 19 -17 264 -85 308 -86 29 0 353 162 378 189 29 33 26 94
-5 126 -41 40 -75 41 -156 2z m110 -43 c34 -34 18 -47 -169 -141 l-152 -76
-137 34 -136 33 0 78 0 78 175 0 c96 0 175 -3 175 -8 0 -4 -7 -18 -16 -30 -14
-20 -24 -22 -100 -22 l-84 0 0 -30 0 -30 83 0 c81 0 83 1 207 65 69 35 128 64
132 65 4 0 14 -7 22 -16z"/>
</g>
</svg>
