<?xml version="1.0" standalone="no"?>
<!DOCTYPE svg PUBLIC "-//W3C//DTD SVG 20010904//EN"
 "http://www.w3.org/TR/2001/REC-SVG-20010904/DTD/svg10.dtd">
<svg version="1.0" xmlns="http://www.w3.org/2000/svg"
 width="96.000000pt" height="96.000000pt" viewBox="0 0 96.000000 96.000000"
 preserveAspectRatio="xMidYMid meet">

<g transform="translate(0.000000,96.000000) scale(0.100000,-0.100000)"
fill="#000000" stroke="none">
<path d="M301 853 c-148 -68 -165 -74 -176 -59 -16 21 -65 22 -65 0 0 -8 14
-29 30 -46 31 -30 55 -34 103 -13 15 6 17 1 17 -49 0 -55 0 -56 -29 -56 -44 0
-61 -10 -61 -35 0 -31 -41 -78 -85 -99 -28 -14 -35 -23 -35 -46 0 -29 2 -30
45 -30 l45 0 0 -164 c0 -159 1 -165 22 -180 19 -14 72 -16 375 -16 l352 0 15
22 c13 18 16 54 16 180 l0 158 45 0 c43 0 45 1 45 30 0 24 -7 33 -37 49 -50
25 -74 53 -82 93 -6 30 -10 33 -49 36 l-42 3 0 56 c0 49 2 54 18 48 47 -21 71
-17 102 13 16 17 30 38 30 46 0 21 -49 21 -65 0 -10 -14 -30 -8 -177 60 -91
42 -171 76 -179 76 -8 -1 -88 -35 -178 -77z m280 -32 l84 -39 -185 -1 c-147 0
-180 3 -160 12 14 6 52 24 85 39 33 15 67 28 76 28 9 0 54 -18 100 -39z m-221
-146 l0 -45 -45 0 -45 0 0 45 0 45 45 0 45 0 0 -45z m180 0 l0 -45 -60 0 -60
0 0 45 0 45 60 0 60 0 0 -45z m150 0 l0 -45 -45 0 -45 0 0 45 0 45 45 0 45 0
0 -45z m97 -122 c3 -10 15 -30 25 -45 l19 -28 -351 0 -351 0 19 28 c10 15 22
35 25 45 6 16 30 17 307 17 277 0 301 -1 307 -17z m23 -283 l0 -150 -75 0 -75
0 0 104 c0 138 3 136 -182 136 -179 0 -178 1 -178 -140 l0 -100 -75 0 -75 0 0
150 0 150 330 0 330 0 0 -150z m-360 -60 l0 -90 -45 0 -45 0 0 90 0 90 45 0
45 0 0 -90z m150 0 l0 -90 -45 0 -45 0 0 90 0 90 45 0 45 0 0 -90z"/>
</g>
</svg>
