<?xml version="1.0" standalone="no"?>
<!DOCTYPE svg PUBLIC "-//W3C//DTD SVG 20010904//EN"
 "http://www.w3.org/TR/2001/REC-SVG-20010904/DTD/svg10.dtd">
<svg version="1.0" xmlns="http://www.w3.org/2000/svg"
 width="96.000000pt" height="96.000000pt" viewBox="0 0 96.000000 96.000000"
 preserveAspectRatio="xMidYMid meet">

<g transform="translate(0.000000,96.000000) scale(0.100000,-0.100000)"
fill="#000000" stroke="none">
<path d="M397 826 c-88 -32 -157 -106 -179 -194 -9 -38 -22 -53 -94 -110 -46
-36 -84 -69 -84 -73 0 -4 34 -36 75 -70 41 -34 75 -68 75 -75 0 -8 -7 -32 -16
-54 -14 -36 -20 -40 -50 -40 -31 0 -34 -2 -34 -30 l0 -31 56 3 57 3 26 70 27
70 97 3 97 3 0 -76 0 -75 30 0 30 0 0 75 0 75 109 0 108 0 28 -75 27 -75 59 0
c59 0 59 0 59 30 0 28 -3 30 -37 30 -37 0 -38 1 -60 60 l-22 60 70 56 c38 31
69 60 69 64 0 4 -38 36 -84 72 -75 59 -84 71 -95 114 -37 147 -204 239 -344
190z m146 -57 c50 -14 106 -64 130 -117 10 -24 17 -46 14 -48 -2 -2 -97 -3
-210 -2 l-205 3 13 39 c35 102 147 156 258 125z m231 -275 c32 -25 54 -49 50
-53 -5 -4 -30 -24 -55 -44 l-46 -37 -243 0 -243 0 -54 41 c-29 23 -53 44 -53
48 1 3 26 25 57 49 l57 42 235 0 236 0 59 -46z"/>
<path d="M282 471 c-23 -14 -10 -46 18 -46 20 0 25 5 25 25 0 26 -20 36 -43
21z"/>
<path d="M462 471 c-23 -14 -10 -46 18 -46 20 0 25 5 25 25 0 26 -20 36 -43
21z"/>
<path d="M642 471 c-23 -14 -10 -46 18 -46 20 0 25 5 25 25 0 26 -20 36 -43
21z"/>
</g>
</svg>
