<?xml version="1.0" standalone="no"?>
<!DOCTYPE svg PUBLIC "-//W3C//DTD SVG 20010904//EN"
 "http://www.w3.org/TR/2001/REC-SVG-20010904/DTD/svg10.dtd">
<svg version="1.0" xmlns="http://www.w3.org/2000/svg"
 width="96.000000pt" height="96.000000pt" viewBox="0 0 96.000000 96.000000"
 preserveAspectRatio="xMidYMid meet">

<g transform="translate(0.000000,96.000000) scale(0.100000,-0.100000)"
fill="#000000" stroke="none">
<path d="M463 924 c-9 -4 -13 -38 -13 -119 l0 -112 -30 -6 c-27 -6 -30 -10
-30 -47 0 -28 -4 -40 -14 -40 -10 0 -16 14 -18 43 l-3 42 -65 3 c-111 5 -110
6 -110 -99 0 -84 2 -93 30 -134 l30 -43 2 -188 3 -189 235 0 235 0 3 189 2
188 31 44 c29 42 30 47 27 136 l-3 93 -65 3 c-98 5 -110 -1 -110 -48 0 -28 -4
-40 -14 -40 -10 0 -16 14 -18 43 -3 38 -6 42 -30 45 -23 3 -28 8 -28 32 l0 29
73 3 72 3 0 85 0 85 -90 2 c-49 1 -96 -1 -102 -3z m137 -84 c0 -29 -2 -30 -45
-30 -43 0 -45 1 -45 30 0 29 2 30 45 30 43 0 45 -1 45 -30z m-298 -252 l3 -43
70 0 70 0 3 43 c3 39 5 42 32 42 27 0 29 -3 32 -42 l3 -43 70 0 70 0 3 43 c3
39 5 42 33 42 29 0 29 -1 29 -56 0 -45 -5 -63 -30 -99 -16 -24 -30 -53 -30
-64 0 -17 -6 -21 -30 -21 -27 0 -30 -3 -30 -30 0 -27 3 -30 30 -30 l30 0 0
-120 0 -120 -30 0 -30 0 0 80 c0 77 -1 82 -34 118 -31 33 -39 37 -85 37 -44 0
-55 -4 -83 -33 -31 -31 -33 -37 -37 -117 l-3 -85 -29 0 -29 0 0 171 0 170 -30
44 c-25 36 -30 54 -30 99 0 55 0 56 29 56 28 0 30 -3 33 -42z m218 -338 c16
-16 20 -33 20 -90 l0 -70 -60 0 -60 0 0 70 c0 76 19 110 60 110 11 0 29 -9 40
-20z"/>
<path d="M510 450 c0 -29 2 -30 45 -30 43 0 45 1 45 30 0 29 -2 30 -45 30 -43
0 -45 -1 -45 -30z"/>
</g>
</svg>
