<?xml version="1.0" standalone="no"?>
<!DOCTYPE svg PUBLIC "-//W3C//DTD SVG 20010904//EN"
 "http://www.w3.org/TR/2001/REC-SVG-20010904/DTD/svg10.dtd">
<svg version="1.0" xmlns="http://www.w3.org/2000/svg"
 width="96.000000pt" height="96.000000pt" viewBox="0 0 96.000000 96.000000"
 preserveAspectRatio="xMidYMid meet">

<g transform="translate(0.000000,96.000000) scale(0.100000,-0.100000)"
fill="#000000" stroke="none">
<path d="M600 880 c0 -50 -57 -110 -105 -110 -10 0 -15 -10 -15 -31 0 -31 1
-31 38 -24 20 3 47 13 60 21 21 14 22 13 22 -14 0 -43 -34 -81 -81 -88 -35 -6
-39 -10 -39 -35 0 -34 20 -37 83 -15 l37 14 0 -44 0 -44 -167 0 c-93 0 -173
-4 -179 -8 -17 -12 -219 -395 -219 -417 0 -20 7 -20 445 -20 406 0 445 1 448
17 2 9 -46 108 -107 220 -95 176 -113 203 -135 206 -23 3 -26 8 -26 46 l0 44
38 -14 c62 -22 82 -19 82 15 0 25 -4 29 -39 35 -47 7 -81 45 -81 88 0 27 1 28
23 14 12 -8 39 -18 60 -21 36 -7 37 -7 37 24 0 21 -5 31 -15 31 -48 0 -105 60
-105 110 0 16 -6 20 -30 20 -24 0 -30 -4 -30 -20z m160 -595 l87 -160 -171 -3
c-199 -3 -169 -20 -258 148 -33 63 -69 130 -80 148 l-20 32 178 -2 178 -3 86
-160z m-524 -162 c-2 -2 -31 -3 -64 -1 l-60 3 62 113 61 113 3 -112 c1 -61 1
-114 -2 -116z m151 75 l42 -78 -64 0 -65 0 0 118 0 117 23 -40 c13 -22 42 -75
64 -117z"/>
<path d="M195 831 c-36 -16 -67 -58 -72 -99 -17 -128 166 -183 222 -66 24 52
19 90 -18 130 -34 37 -92 53 -132 35z m85 -71 c11 -11 20 -28 20 -38 0 -29
-29 -62 -56 -62 -29 0 -64 32 -64 60 0 11 9 29 20 40 11 11 29 20 40 20 11 0
29 -9 40 -20z"/>
</g>
</svg>
