<?xml version="1.0" standalone="no"?>
<!DOCTYPE svg PUBLIC "-//W3C//DTD SVG 20010904//EN"
 "http://www.w3.org/TR/2001/REC-SVG-20010904/DTD/svg10.dtd">
<svg version="1.0" xmlns="http://www.w3.org/2000/svg"
 width="96.000000pt" height="96.000000pt" viewBox="0 0 96.000000 96.000000"
 preserveAspectRatio="xMidYMid meet">

<g transform="translate(0.000000,96.000000) scale(0.100000,-0.100000)"
fill="#000000" stroke="none">
<path d="M571 908 c-5 -13 -21 -52 -35 -88 l-26 -65 2 -360 3 -360 85 0 85 0
3 360 2 361 -34 84 c-26 65 -39 86 -55 88 -14 2 -24 -4 -30 -20z m47 -131 c7
-18 12 -79 12 -135 l0 -102 -30 0 -30 0 0 102 c0 91 14 168 30 168 3 0 11 -15
18 -33z m12 -342 c0 -43 -1 -45 -30 -45 -29 0 -30 2 -30 45 0 43 1 45 30 45
29 0 30 -2 30 -45z m0 -225 l0 -120 -30 0 -30 0 0 120 0 120 30 0 30 0 0 -120z"/>
<path d="M811 908 c-5 -13 -21 -52 -35 -88 l-26 -65 2 -360 3 -360 85 0 85 0
3 360 2 361 -34 84 c-26 65 -39 86 -55 88 -14 2 -24 -4 -30 -20z m47 -131 c7
-18 12 -79 12 -135 l0 -102 -30 0 -30 0 0 102 c0 91 14 168 30 168 3 0 11 -15
18 -33z m12 -342 c0 -43 -1 -45 -30 -45 -29 0 -30 2 -30 45 0 43 1 45 30 45
29 0 30 -2 30 -45z m0 -225 l0 -120 -30 0 -30 0 0 120 0 120 30 0 30 0 0 -120z"/>
<path d="M285 848 c-2 -7 -13 -49 -25 -93 -11 -44 -23 -87 -26 -95 -3 -9 -23
28 -46 88 -36 93 -42 102 -61 96 -12 -3 -25 -9 -28 -13 -4 -3 18 -70 48 -148
l56 -143 -45 -167 -45 -168 -30 2 c-24 2 -32 -2 -37 -20 -9 -33 -8 -34 19 -41
27 -7 30 -15 16 -63 -8 -28 -7 -32 15 -37 33 -9 41 -3 48 39 6 32 10 35 39 32
28 -2 32 1 35 24 3 22 -2 28 -23 33 -15 4 -25 12 -23 19 3 7 18 63 34 125 15
61 31 112 34 112 3 0 25 -52 49 -116 45 -117 45 -123 8 -137 -5 -1 -3 -15 4
-29 9 -22 15 -25 30 -18 25 14 25 15 43 -35 10 -25 19 -45 21 -45 2 0 15 4 29
10 l25 9 -17 47 c-10 29 -13 49 -7 51 32 11 36 20 24 46 -10 22 -15 24 -31 16
-11 -6 -22 -8 -25 -6 -2 3 -31 74 -64 159 -68 172 -67 152 -16 340 35 126 35
126 13 132 -31 8 -36 7 -41 -6z"/>
</g>
</svg>
