<?xml version="1.0" standalone="no"?>
<!DOCTYPE svg PUBLIC "-//W3C//DTD SVG 20010904//EN"
 "http://www.w3.org/TR/2001/REC-SVG-20010904/DTD/svg10.dtd">
<svg version="1.0" xmlns="http://www.w3.org/2000/svg"
 width="96.000000pt" height="96.000000pt" viewBox="0 0 96.000000 96.000000"
 preserveAspectRatio="xMidYMid meet">

<g transform="translate(0.000000,96.000000) scale(0.100000,-0.100000)"
fill="#000000" stroke="none">
<path d="M138 879 c-23 -12 -46 -35 -58 -59 -28 -55 -26 -70 10 -70 21 0 30 5
30 16 0 8 13 29 29 45 34 34 77 38 111 11 l23 -18 -31 -13 c-39 -16 -67 -47
-87 -93 -22 -55 -20 -68 14 -68 24 0 31 5 36 29 3 15 19 41 35 56 l29 27 -6
-74 c-5 -67 6 -130 33 -194 3 -6 -9 -17 -26 -24 -45 -19 -105 -92 -120 -147
-16 -58 -26 -73 -51 -73 -15 0 -19 -7 -19 -34 0 -34 1 -34 31 -26 17 5 42 16
55 25 32 20 56 19 99 -6 46 -28 104 -28 150 0 45 26 65 26 110 0 46 -28 104
-28 150 0 43 25 67 26 99 6 13 -9 38 -20 55 -25 30 -8 31 -8 31 26 0 27 -4 34
-19 34 -23 0 -33 13 -55 72 -30 81 -107 126 -193 114 -37 -5 -50 -2 -76 18
-37 27 -89 46 -127 46 -23 0 -31 7 -49 49 -34 80 -22 228 17 214 30 -11 71
-55 77 -84 5 -24 12 -29 36 -29 34 0 36 13 14 68 -20 46 -48 77 -87 93 l-31
13 23 18 c34 27 77 23 111 -11 16 -16 29 -37 29 -45 0 -11 9 -16 31 -16 30 0
31 2 26 30 -9 45 -36 79 -78 101 -51 25 -95 24 -146 -6 l-43 -24 -42 24 c-52
30 -100 31 -150 4z m328 -478 c22 -10 50 -30 61 -45 20 -25 21 -25 53 -10 20
11 44 14 67 11 57 -10 124 -87 76 -87 -10 0 -33 -9 -51 -20 -41 -25 -83 -25
-124 0 -18 11 -49 20 -68 20 -19 0 -50 -9 -68 -20 -18 -11 -46 -20 -62 -20
-16 0 -44 9 -62 20 -18 11 -43 20 -56 20 -22 0 -22 1 -7 37 21 50 42 72 90 94
51 24 99 24 151 0z"/>
<path d="M152 100 c-18 -11 -39 -20 -47 -20 -10 0 -15 -11 -15 -34 0 -34 1
-34 31 -26 17 5 42 16 55 25 32 20 56 19 99 -6 46 -28 104 -28 150 0 20 11 45
21 55 21 10 0 35 -10 55 -21 46 -28 104 -28 150 0 43 25 67 26 99 6 13 -9 38
-20 55 -25 30 -8 31 -8 31 26 0 23 -5 34 -15 34 -8 0 -29 9 -47 20 -42 25 -94
25 -136 0 -41 -25 -83 -25 -124 0 -42 25 -94 25 -136 0 -18 -11 -46 -20 -62
-20 -16 0 -44 9 -62 20 -42 25 -94 25 -136 0z"/>
</g>
</svg>
