<?xml version="1.0" standalone="no"?>
<!DOCTYPE svg PUBLIC "-//W3C//DTD SVG 20010904//EN"
 "http://www.w3.org/TR/2001/REC-SVG-20010904/DTD/svg10.dtd">
<svg version="1.0" xmlns="http://www.w3.org/2000/svg"
 width="96.000000pt" height="96.000000pt" viewBox="0 0 96.000000 96.000000"
 preserveAspectRatio="xMidYMid meet">

<g transform="translate(0.000000,96.000000) scale(0.100000,-0.100000)"
fill="#000000" stroke="none">
<path d="M563 910 c-33 -20 -53 -48 -53 -74 0 -26 49 -20 72 9 22 29 63 33 89
9 16 -14 14 -18 -22 -52 -23 -22 -42 -50 -45 -69 -6 -31 -5 -33 22 -33 23 0
32 7 44 33 20 43 32 40 43 -8 14 -65 3 -173 -25 -242 l-26 -63 33 0 c31 0 35
4 57 58 19 48 23 75 23 175 0 114 1 117 17 96 10 -11 18 -27 18 -35 0 -9 11
-14 31 -14 30 0 31 1 25 32 -7 36 -49 85 -85 99 -19 8 -21 12 -11 24 20 24 66
18 88 -10 24 -30 72 -35 72 -7 0 68 -108 114 -180 77 -27 -14 -33 -14 -60 0
-40 20 -89 19 -127 -5z"/>
<path d="M256 838 c-118 -65 -195 -157 -196 -235 0 -30 3 -33 30 -33 l29 0 3
-87 3 -88 205 0 205 0 3 88 3 87 29 0 c27 0 30 3 30 33 -1 50 -32 108 -87 158
-51 45 -159 109 -184 109 -8 0 -40 -15 -73 -32z m150 -73 c61 -36 124 -98 124
-122 0 -10 -40 -13 -200 -13 -229 0 -230 1 -156 75 44 43 127 94 157 95 8 0
42 -16 75 -35z m74 -255 l0 -60 -60 0 -60 0 0 30 c0 27 -3 30 -30 30 -27 0
-30 -3 -30 -30 l0 -30 -60 0 -60 0 0 60 0 60 150 0 150 0 0 -60z"/>
<path d="M126 305 c-20 -14 -43 -25 -51 -25 -10 0 -15 -10 -15 -30 0 -25 4
-30 23 -30 12 0 39 11 59 25 20 14 46 25 58 25 12 0 38 -11 58 -25 26 -18 50
-25 82 -25 32 0 56 7 82 25 20 14 46 25 58 25 12 0 38 -11 58 -25 26 -18 50
-25 82 -25 32 0 56 7 82 25 46 31 70 31 116 0 20 -14 47 -25 59 -25 19 0 23 5
23 30 0 20 -5 30 -15 30 -8 0 -31 11 -51 25 -48 33 -100 33 -148 0 -20 -14
-50 -25 -66 -25 -16 0 -46 11 -66 25 -23 16 -51 25 -74 25 -23 0 -51 -9 -74
-25 -20 -14 -50 -25 -66 -25 -16 0 -46 11 -66 25 -23 16 -51 25 -74 25 -23 0
-51 -9 -74 -25z"/>
<path d="M126 155 c-20 -14 -43 -25 -51 -25 -10 0 -15 -10 -15 -30 0 -25 4
-30 23 -30 12 0 39 11 59 25 20 14 46 25 58 25 12 0 38 -11 58 -25 50 -34 114
-34 164 0 20 14 46 25 58 25 12 0 38 -11 58 -25 26 -18 50 -25 82 -25 32 0 56
7 82 25 46 31 70 31 116 0 20 -14 47 -25 59 -25 19 0 23 5 23 30 0 20 -5 30
-15 30 -8 0 -31 11 -51 25 -48 33 -100 33 -148 0 -47 -32 -85 -32 -132 0 -48
33 -100 33 -148 0 -20 -14 -50 -25 -66 -25 -16 0 -46 11 -66 25 -23 16 -51 25
-74 25 -23 0 -51 -9 -74 -25z"/>
</g>
</svg>
