<?xml version="1.0" standalone="no"?>
<!DOCTYPE svg PUBLIC "-//W3C//DTD SVG 20010904//EN"
 "http://www.w3.org/TR/2001/REC-SVG-20010904/DTD/svg10.dtd">
<svg version="1.0" xmlns="http://www.w3.org/2000/svg"
 width="96.000000pt" height="96.000000pt" viewBox="0 0 96.000000 96.000000"
 preserveAspectRatio="xMidYMid meet">

<g transform="translate(0.000000,96.000000) scale(0.100000,-0.100000)"
fill="#000000" stroke="none">
<path d="M120 855 l0 -45 -47 0 c-27 0 -54 -4 -61 -8 -9 -7 -12 -88 -10 -373
l3 -364 475 0 475 0 0 370 0 370 -57 3 -58 3 0 44 c0 43 -1 45 -30 45 -29 0
-30 -2 -30 -45 l0 -45 -300 0 -300 0 0 45 c0 43 -1 45 -30 45 -29 0 -30 -2
-30 -45z m278 -122 c-8 -10 -43 -51 -78 -90 l-63 -73 -98 0 -99 0 0 90 0 90
177 0 c167 0 175 -1 161 -17z m502 -73 l0 -90 -99 0 -98 0 -63 73 c-35 39 -70
80 -78 90 -14 16 -6 17 161 17 l177 0 0 -90z m-326 -33 l86 -98 0 -205 0 -204
-30 0 -30 0 0 95 c0 95 0 96 -34 133 -31 33 -39 37 -85 37 -44 0 -55 -4 -83
-33 -32 -32 -33 -35 -36 -132 l-4 -100 -29 0 -29 0 0 203 0 204 88 101 c48 56
90 100 94 99 3 -1 45 -46 92 -100z m-334 -252 l0 -136 -30 16 c-37 19 -83 19
-120 0 l-30 -16 0 136 0 135 90 0 90 0 0 -135z m660 0 l0 -136 -30 16 c-37 19
-83 19 -120 0 l-30 -16 0 136 0 135 90 0 90 0 0 -135z m-380 -65 c17 -17 20
-33 20 -105 l0 -85 -60 0 -60 0 0 85 c0 72 3 88 20 105 11 11 29 20 40 20 11
0 29 -9 40 -20z m-309 -129 c51 -51 42 -61 -61 -61 -75 0 -90 3 -90 16 0 28
56 74 90 74 22 0 41 -9 61 -29z m660 0 c51 -51 42 -61 -61 -61 -75 0 -90 3
-90 16 0 28 56 74 90 74 22 0 41 -9 61 -29z"/>
<path d="M462 561 c-23 -14 -10 -46 18 -46 20 0 25 5 25 25 0 26 -20 36 -43
21z"/>
</g>
</svg>
