<?xml version="1.0" standalone="no"?>
<!DOCTYPE svg PUBLIC "-//W3C//DTD SVG 20010904//EN"
 "http://www.w3.org/TR/2001/REC-SVG-20010904/DTD/svg10.dtd">
<svg version="1.0" xmlns="http://www.w3.org/2000/svg"
 width="96.000000pt" height="96.000000pt" viewBox="0 0 96.000000 96.000000"
 preserveAspectRatio="xMidYMid meet">

<g transform="translate(0.000000,96.000000) scale(0.100000,-0.100000)"
fill="#000000" stroke="none">
<path d="M445 896 c-16 -8 -122 -107 -235 -220 l-205 -206 23 -22 c21 -21 23
-21 39 -5 16 15 18 14 29 -20 9 -26 10 -42 2 -56 -5 -10 -7 -40 -4 -66 7 -56
7 -63 0 -128 -5 -49 -4 -55 24 -83 l30 -30 332 0 332 0 30 30 c28 28 29 34 24
83 -7 65 -7 72 0 128 3 26 1 56 -4 66 -8 14 -7 30 2 56 11 34 13 35 29 20 16
-16 18 -16 39 5 l22 22 -42 43 -42 43 0 142 0 142 -30 0 -30 0 0 -112 0 -112
-143 142 c-79 78 -148 142 -154 142 -6 0 -17 2 -25 5 -7 2 -26 -2 -43 -9z
m110 -116 l59 -60 -134 0 -134 0 59 60 c33 33 66 60 75 60 9 0 42 -27 75 -60z
m165 -165 l44 -45 -284 0 -284 0 44 45 44 45 196 0 196 0 44 -45z m86 -129
c14 -55 6 -61 -89 -64 -66 -2 -93 1 -109 13 -31 21 -225 22 -254 0 -28 -21
-190 -21 -198 1 -10 26 -7 62 7 67 6 3 153 6 324 6 l313 1 6 -24z m-236 -231
l0 -135 -90 0 -90 0 0 135 0 135 90 0 90 0 0 -135z m-240 60 l0 -45 -84 0
c-89 0 -96 4 -96 55 0 30 9 33 103 34 l77 1 0 -45z m476 21 c14 -55 6 -61 -89
-64 l-87 -3 0 46 0 45 85 0 c81 0 85 -1 91 -24z m-476 -171 l0 -45 -84 0 c-89
0 -96 4 -96 55 0 30 9 33 103 34 l77 1 0 -45z m476 21 c14 -55 6 -61 -89 -64
l-87 -3 0 46 0 45 85 0 c81 0 85 -1 91 -24z"/>
</g>
</svg>
