<?xml version="1.0" standalone="no"?>
<!DOCTYPE svg PUBLIC "-//W3C//DTD SVG 20010904//EN"
 "http://www.w3.org/TR/2001/REC-SVG-20010904/DTD/svg10.dtd">
<svg version="1.0" xmlns="http://www.w3.org/2000/svg"
 width="96.000000pt" height="96.000000pt" viewBox="0 0 96.000000 96.000000"
 preserveAspectRatio="xMidYMid meet">

<g transform="translate(0.000000,96.000000) scale(0.100000,-0.100000)"
fill="#000000" stroke="none">
<path d="M180 874 c0 -35 -59 -94 -94 -94 -22 0 -26 -4 -26 -30 0 -26 4 -30
28 -30 15 0 40 7 56 15 34 18 42 14 27 -13 -16 -31 -61 -62 -87 -62 -20 0 -24
-5 -24 -30 0 -26 4 -30 28 -30 15 0 40 7 56 15 15 8 30 15 32 15 2 0 4 -20 4
-44 l0 -44 -46 -7 c-67 -10 -74 -14 -74 -46 0 -27 2 -28 33 -21 70 16 219 7
290 -17 37 -12 67 -26 67 -29 0 -4 -19 -18 -42 -31 -22 -13 -60 -41 -83 -62
l-43 -39 -111 6 -111 7 0 -31 c0 -32 0 -32 53 -32 146 0 282 -36 509 -133 111
-48 207 -77 252 -77 22 0 26 5 26 28 0 26 -3 28 -67 40 -38 7 -135 42 -218 77
-82 34 -176 71 -208 81 l-58 18 23 19 c90 72 198 115 307 124 69 5 159 -5 204
-22 14 -6 17 -2 17 24 0 19 -6 34 -15 37 -10 4 -15 21 -15 55 0 36 3 47 13 43
7 -2 22 5 32 16 22 24 31 14 -112 128 -56 45 -106 82 -111 82 -6 0 -33 -18
-61 -40 -28 -22 -53 -40 -56 -40 -3 0 -5 11 -5 25 0 21 -5 25 -30 25 -30 0
-30 -1 -30 -52 0 -48 -3 -56 -32 -80 -32 -26 -32 -27 -14 -46 10 -12 24 -18
32 -15 11 4 14 -6 14 -46 l0 -51 -37 18 c-51 26 -128 50 -185 58 l-48 6 0 44
c0 48 3 50 40 29 14 -8 37 -14 53 -15 23 0 27 4 27 30 0 25 -4 30 -24 30 -26
0 -71 31 -87 62 -15 28 -6 32 30 14 16 -9 41 -16 56 -16 21 0 25 5 25 30 0 26
-4 30 -26 30 -35 0 -94 59 -94 94 0 22 -4 26 -30 26 -26 0 -30 -4 -30 -26z
m570 -211 l60 -48 0 -70 0 -70 -45 3 -45 4 0 44 c0 42 -1 44 -30 44 -29 0 -30
-2 -30 -44 0 -47 1 -46 -62 -60 l-28 -6 0 78 0 79 58 46 c31 25 58 46 60 47 1
0 30 -21 62 -47z"/>
</g>
</svg>
