<?xml version="1.0" standalone="no"?>
<!DOCTYPE svg PUBLIC "-//W3C//DTD SVG 20010904//EN"
 "http://www.w3.org/TR/2001/REC-SVG-20010904/DTD/svg10.dtd">
<svg version="1.0" xmlns="http://www.w3.org/2000/svg"
 width="96.000000pt" height="96.000000pt" viewBox="0 0 96.000000 96.000000"
 preserveAspectRatio="xMidYMid meet">

<g transform="translate(0.000000,96.000000) scale(0.100000,-0.100000)"
fill="#000000" stroke="none">
<path d="M720 880 c0 -50 -57 -110 -105 -110 -10 0 -15 -10 -15 -31 0 -31 1
-31 38 -24 20 3 47 13 60 21 21 14 22 13 22 -14 0 -43 -34 -81 -81 -88 -35 -6
-39 -10 -39 -35 0 -34 20 -37 83 -15 l37 14 0 -74 0 -74 -90 0 -90 0 0 128 0
127 -101 85 c-114 97 -131 107 -158 94 -11 -5 -65 -47 -120 -94 l-101 -85 0
-157 0 -158 420 0 420 0 0 30 0 30 -60 0 -60 0 0 74 0 74 38 -14 c62 -22 82
-19 82 15 0 25 -4 29 -39 35 -47 7 -81 45 -81 88 0 27 1 28 23 14 12 -8 39
-18 60 -21 36 -7 37 -7 37 24 0 21 -5 31 -15 31 -48 0 -105 60 -105 110 0 16
-6 20 -30 20 -24 0 -30 -4 -30 -20z m-330 -127 l90 -77 0 -113 0 -113 -45 0
-44 0 -3 88 -3 87 -65 3 c-110 5 -110 5 -110 -93 l0 -85 -45 0 -45 0 0 113 0
113 88 76 c48 42 88 77 90 77 2 1 43 -34 92 -76z m-60 -243 l0 -60 -30 0 -30
0 0 60 0 60 30 0 30 0 0 -60z"/>
<path d="M126 305 c-20 -14 -43 -25 -51 -25 -10 0 -15 -10 -15 -30 0 -25 4
-30 23 -30 12 0 39 11 59 25 20 14 46 25 58 25 12 0 38 -11 58 -25 26 -18 50
-25 82 -25 32 0 56 7 82 25 20 14 46 25 58 25 12 0 38 -11 58 -25 26 -18 50
-25 82 -25 32 0 56 7 82 25 46 31 70 31 116 0 20 -14 47 -25 59 -25 19 0 23 5
23 30 0 20 -5 30 -15 30 -8 0 -31 11 -51 25 -48 33 -100 33 -148 0 -20 -14
-50 -25 -66 -25 -16 0 -46 11 -66 25 -23 16 -51 25 -74 25 -23 0 -51 -9 -74
-25 -20 -14 -50 -25 -66 -25 -16 0 -46 11 -66 25 -23 16 -51 25 -74 25 -23 0
-51 -9 -74 -25z"/>
<path d="M126 155 c-20 -14 -43 -25 -51 -25 -10 0 -15 -10 -15 -30 0 -25 4
-30 23 -30 12 0 39 11 59 25 20 14 46 25 58 25 12 0 38 -11 58 -25 50 -34 114
-34 164 0 20 14 46 25 58 25 12 0 38 -11 58 -25 26 -18 50 -25 82 -25 32 0 56
7 82 25 46 31 70 31 116 0 20 -14 47 -25 59 -25 19 0 23 5 23 30 0 20 -5 30
-15 30 -8 0 -31 11 -51 25 -48 33 -100 33 -148 0 -47 -32 -85 -32 -132 0 -48
33 -100 33 -148 0 -20 -14 -50 -25 -66 -25 -16 0 -46 11 -66 25 -23 16 -51 25
-74 25 -23 0 -51 -9 -74 -25z"/>
</g>
</svg>
