<?xml version="1.0" standalone="no"?>
<!DOCTYPE svg PUBLIC "-//W3C//DTD SVG 20010904//EN"
 "http://www.w3.org/TR/2001/REC-SVG-20010904/DTD/svg10.dtd">
<svg version="1.0" xmlns="http://www.w3.org/2000/svg"
 width="97.000000pt" height="96.000000pt" viewBox="0 0 97.000000 96.000000"
 preserveAspectRatio="xMidYMid meet">

<g transform="translate(0.000000,96.000000) scale(0.100000,-0.100000)"
fill="#000000" stroke="none">
<path d="M550 765 c-201 -101 -368 -184 -372 -184 -5 -1 -8 44 -8 99 l0 100
-35 0 -35 0 0 -120 0 -120 -34 -17 c-31 -14 -33 -18 -23 -40 8 -19 16 -23 34
-18 l23 5 0 -175 c0 -171 6 -208 34 -227 14 -10 708 -10 722 0 31 21 34 54 34
427 l0 375 34 17 c31 14 33 18 24 39 -6 13 -16 24 -22 23 -6 0 -175 -83 -376
-184z m270 -290 l0 -355 -85 0 -85 0 0 154 c0 140 -2 156 -21 180 -20 25 -23
26 -134 26 -111 0 -114 -1 -134 -26 -19 -24 -21 -40 -21 -180 l0 -154 -85 0
-85 0 0 195 0 195 318 159 c174 88 320 160 325 160 4 1 7 -159 7 -354z m-240
-205 l0 -150 -85 0 -85 0 0 150 0 150 85 0 85 0 0 -150z"/>
<path d="M714 646 c-9 -24 4 -48 23 -44 12 2 18 12 18 28 0 29 -32 41 -41 16z"/>
</g>
</svg>
