<?xml version="1.0" standalone="no"?>
<!DOCTYPE svg PUBLIC "-//W3C//DTD SVG 20010904//EN"
 "http://www.w3.org/TR/2001/REC-SVG-20010904/DTD/svg10.dtd">
<svg version="1.0" xmlns="http://www.w3.org/2000/svg"
 width="2361.000000pt" height="2361.000000pt" viewBox="0 0 2361.000000 2361.000000"
 preserveAspectRatio="xMidYMid meet">

<g transform="translate(0.000000,2361.000000) scale(0.100000,-0.100000)"
fill="#000000" stroke="none">
<path d="M11185 23600 c-1495 -89 -2818 -404 -4150 -987 -223 -98 -727 -347
-935 -464 -1840 -1026 -3360 -2493 -4422 -4264 -324 -541 -601 -1096 -828
-1660 -473 -1173 -730 -2304 -832 -3660 -18 -231 -18 -1289 0 -1520 51 -674
124 -1199 246 -1758 211 -965 517 -1835 956 -2722 239 -483 460 -864 760
-1314 1133 -1697 2683 -3071 4500 -3990 1319 -667 2767 -1083 4230 -1215 405
-37 512 -41 1095 -41 583 0 690 4 1095 41 2962 267 5735 1669 7728 3908 575
645 1087 1368 1521 2146 117 208 366 712 464 935 518 1183 838 2419 951 3675
37 405 41 512 41 1095 0 583 -4 690 -41 1095 -113 1256 -433 2492 -951 3675
-97 222 -347 726 -464 935 -934 1676 -2214 3068 -3790 4120 -1239 827 -2581
1398 -4036 1716 -553 120 -1060 192 -1738 245 -174 14 -1210 20 -1400 9z
m-4804 -4411 c435 -44 851 -252 1144 -572 630 -688 645 -1709 36 -2422 -356
-418 -949 -665 -1477 -616 -324 29 -613 129 -861 297 -460 312 -742 781 -802
1336 -35 315 28 660 174 964 326 675 1053 1088 1786 1013z m9744 -4648 c483
-58 869 -168 1246 -357 1020 -510 1642 -1510 1783 -2869 35 -331 36 -471 36
-3687 l0 -3208 -1515 0 -1515 0 -3 2788 c-3 3013 0 2819 -53 3127 -70 408
-219 756 -432 1000 -309 357 -791 517 -1397 464 -904 -77 -1469 -659 -1609
-1654 -35 -245 -36 -327 -36 -3027 l0 -2698 -1460 0 -1460 0 0 4925 0 4925
1460 0 1460 0 0 -655 c0 -518 3 -655 13 -654 6 0 40 44 74 97 182 285 531 643
848 869 488 348 1068 566 1655 622 63 6 133 13 155 15 109 11 589 -4 750 -23z
m-8375 -5196 l0 -4925 -1522 2 -1523 3 -3 4910 c-1 2701 0 4916 3 4923 3 9
318 12 1525 12 l1520 0 0 -4925z"/>
</g>
</svg>
